<?xml version="1.0" standalone="no"?>
<!DOCTYPE svg PUBLIC "-//W3C//DTD SVG 20010904//EN"
 "http://www.w3.org/TR/2001/REC-SVG-20010904/DTD/svg10.dtd">
<svg version="1.0" xmlns="http://www.w3.org/2000/svg"
 width="360.000000pt" height="360.000000pt" viewBox="0 0 360.000000 360.000000"
 preserveAspectRatio="xMidYMid meet">

<g transform="translate(0.000000,360.000000) scale(0.100000,-0.100000)"
fill="#000000" stroke="none">
<path d="M860 1912 c0 -368 2 -378 73 -417 20 -11 38 -29 41 -40 3 -11 19 -34
36 -50 l31 -30 350 -3 349 -3 0 126 0 125 -310 0 -310 0 0 310 0 310 -130 0
-130 0 0 -328z m110 -22 l0 -310 365 0 365 0 0 -30 0 -30 -366 0 c-242 0 -372
4 -386 11 -43 23 -48 60 -48 374 l0 295 35 0 35 0 0 -310z m110 20 l0 -290
-35 0 -35 0 0 290 0 290 35 0 35 0 0 -290z m618 -470 l3 -30 -315 0 -314 0
-31 26 c-17 14 -29 29 -27 32 2 4 156 6 343 5 l338 -2 3 -31z"/>
<path d="M1800 1916 c0 -205 4 -335 11 -353 12 -34 58 -83 76 -83 7 0 21 -16
30 -37 10 -20 31 -46 46 -57 27 -20 42 -21 373 -24 l344 -3 0 131 0 131 -310
-3 -310 -3 0 313 0 312 -130 0 -130 0 0 -324z m110 -36 l0 -310 365 0 365 0 0
-30 0 -30 -365 0 -365 0 -32 29 -33 29 -3 311 -3 311 36 0 35 0 0 -310z m108
23 l-3 -288 -32 -3 -33 -3 0 290 0 291 35 0 35 0 -2 -287z m622 -463 l0 -30
-316 0 c-196 0 -323 4 -334 10 -11 6 -24 19 -30 30 -11 20 -6 20 335 20 l345
0 0 -30z"/>
</g>
</svg>
